<?xml version="1.0" encoding="UTF-8"?>
<svg viewBox="0 0 744.09447 1052.362179" xmlns="http://www.w3.org/2000/svg">
 <path d="m281.25 144.86 7.5-1.25-1.25 8.75 7.5 6.25 2.5 7.5-5 11.25-1.25 11.25 5 15 11.25 7.5 15-2.5 18.75-8.75 21.25 3.75-2.5-10 12.5-2.5 3.75-3.75 15 8.75 10-2.5 13.75 1.25 10-11.25 1.25-8.75 13.75-13.75 11.25 12.5 1.25 16.25 7.5 15 8.75 3.75-7.5 13.75-12.5 12.5-5 6.25 1.25 11.25h7.5l5-15h16.25l18.75 1.25v8.75l-3.75 8.75-8.75 6.25 12.5-2.5 6.25-11.25 13.75-2.5 30 11.25 7.5 7.5 8.75-2.5 5 10v8.75l3.75 3.75 13.75-5 15 5 20 5 22.5-1.25 26.25 17.5 12.5 11.25 16.25 12.5 21.25 6.25 10 13.75 3.75 21.25-5 22.5-17.5 20-11.25 11.25-15 17.5-11.25 18.75-12.5 5-7.5 10 1.25 13.75v18.75l-3.75 22.5-6.25 20-10 15 1.25 12.5-13.75 16.25-10 15v12.5l-15 7.5-3.75 5v2.5l-12.5 1.25-17.5-3.75-8.75 5-8.75 1.25-7.5 5-3.75 5h-10l-18.75 13.75-10 10-10 6.25-3.75 17.5 2.5 12.5-3.75 16.25-12.5 12.5-8.75 17.5-16.25 25-13.75 7.5-10 15-6.25 12.5-6.25 1.25-2.5-11.25 7.5-7.5-7.5-7.5-5-5-20-12.5-2.5-7.5-7.5 5-12.5-15h-10l3.75-7.5 18.75-21.25 21.25-17.5 11.25-7.5 2.5-16.25-5-8.75-8.75-2.5 5-18.75-5-11.25-12.5 3.75-6.25-28.75-13.75-3.75-21.25 1.25 1.25-20-6.25-17.5 10-30-5-12.5-10-7.5v-13.75h-31.25l-5-18.75 3.75-3.75-2.5-17.5s-12.5-8.75-15-8.75-25-5-25-5l-15-12.5s-7.5 3.75-12.5 1.25-18.75-20-18.75-20v-26.25l-23.75 6.25-11.25 13.75h-11.25l-11.25 10-20-3.75-6.25 2.5-7.5-7.5 1.25-20-10 9.9999h-17.5l-2.5-8.7499-13.75-1.25 3.75-7.5-20-23.75 3.75-12.5 12.5-5-2.5-8.75 2.5-16.25 32.5-18.75 15 3.75 13.75-56.25-5-13.75-10-5 2.5-12.5 15-2.5-5-7.5h-6.25v-8.75l28.75-7.5 3.75 6.25 10-10 6.25 13.75 11.25 8.75 16.25-3.75 23.75-11.25 11.25-10-5-6.25-11.25-15-6.25-13.75 16.25 5 15 3.75 8.75-10 20-6.25 12.5-11.25z" fill="#fff" stroke="none" stroke-width="0"/>
</svg>
